nColumns=28
nRows=33
DataType=double
version=3
OpenSimVersion=4.1
endheader
time	ground_force_1_vx	ground_force_1_vy	ground_force_1_vz	ground_force_1_px	ground_force_1_py	ground_force_1_pz	ground_force_1_mx	ground_force_1_my	ground_force_1_mz	ground_force_2_vx	ground_force_2_vy	ground_force_2_vz	ground_force_2_px	ground_force_2_py	ground_force_2_pz	ground_force_2_mx	ground_force_2_my	ground_force_2_mz	ground_force_3_vx	ground_force_3_vy	ground_force_3_vz	ground_force_3_px	ground_force_3_py	ground_force_3_pz	ground_force_3_mx	ground_force_3_my	ground_force_3_mz
0	-2.69374	279.117	-21.5099	-0.22511	0.006	-0.462499	0	-0.732067	0	0.280555	308.797	22.7388	-0.227877	0.006	-0.730781	0	1.06672	0	0	0	0	0	0	0	0	0	0
0.01	-2.56503	279.164	-21.3983	-0.224978	0.006	-0.462288	0	-0.717212	0	0.498521	309.159	22.84	-0.227701	0.006	-0.730991	0	1.06833	0	0	0	0	0	0	0	0	0	0
0.02	-2.45741	279.383	-21.3371	-0.224807	0.006	-0.462008	0	-0.72537	0	0.639893	309.506	22.9323	-0.227549	0.006	-0.731251	0	1.0531	0	0	0	0	0	0	0	0	0	0
0.03	-2.4301	279.658	-21.375	-0.224728	0.006	-0.461832	0	-0.744814	0	0.607094	309.453	22.9276	-0.227448	0.006	-0.731214	0	1.07005	0	0	0	0	0	0	0	0	0	0
0.04	-2.55561	279.555	-21.3838	-0.224771	0.006	-0.462037	0	-0.722677	0	0.553782	309.428	22.9188	-0.227383	0.006	-0.731166	0	1.06702	0	0	0	0	0	0	0	0	0	0
0.05	-2.69949	279.266	-21.3269	-0.22478	0.006	-0.46225	0	-0.687256	0	0.534454	309.487	22.9136	-0.227371	0.006	-0.731247	0	1.07303	0	0	0	0	0	0	0	0	0	0
0.06	-2.61702	279.446	-21.3318	-0.224678	0.006	-0.462113	0	-0.706353	0	0.552082	309.502	22.9547	-0.22747	0.006	-0.731225	0	1.09708	0	0	0	0	0	0	0	0	0	0
0.07	-2.54076	279.493	-21.3924	-0.224624	0.006	-0.462065	0	-0.707709	0	0.53408	309.373	22.9317	-0.227314	0.006	-0.731148	0	1.10754	0	0	0	0	0	0	0	0	0	0
0.08	-2.55201	279.518	-21.4262	-0.224591	0.006	-0.462017	0	-0.69471	0	0.526718	309.157	22.8969	-0.227144	0.006	-0.731116	0	1.09252	0	0	0	0	0	0	0	0	0	0
0.09	-2.61953	279.721	-21.465	-0.224542	0.006	-0.461856	0	-0.700927	0	0.603456	309.02	22.9001	-0.227343	0.006	-0.731032	0	1.09663	0	0	0	0	0	0	0	0	0	0
0.1	-2.63845	279.809	-21.5485	-0.2246	0.006	-0.461779	0	-0.70367	0	0.648556	308.947	22.9474	-0.22744	0.006	-0.73097	0	1.1181	0	0	0	0	0	0	0	0	0	0
0.11	-2.62512	279.753	-21.5827	-0.224589	0.006	-0.461921	0	-0.684384	0	0.607463	308.841	22.9243	-0.227577	0.006	-0.730945	0	1.12901	0	0	0	0	0	0	0	0	0	0
0.12	-2.60924	279.822	-21.5238	-0.224544	0.006	-0.461962	0	-0.672734	0	0.579631	308.754	22.9181	-0.227634	0.006	-0.730972	0	1.11639	0	0	0	0	0	0	0	0	0	0
0.13	-2.51845	279.831	-21.4871	-0.224599	0.006	-0.461966	0	-0.694127	0	0.531198	308.958	22.9222	-0.227614	0.006	-0.731119	0	1.07618	0	0	0	0	0	0	0	0	0	0
0.14	-2.42416	279.827	-21.5254	-0.224607	0.006	-0.462116	0	-0.712195	0	0.50974	309.136	22.9153	-0.227444	0.006	-0.731192	0	1.06887	0	0	0	0	0	0	0	0	0	0
0.15	-2.48801	279.801	-21.5606	-0.224579	0.006	-0.462176	0	-0.707584	0	0.555602	309.254	22.9111	-0.227161	0.006	-0.73117	0	1.12309	0	0	0	0	0	0	0	0	0	0
0.16	-2.59811	279.724	-21.5829	-0.224573	0.006	-0.462208	0	-0.699473	0	0.55669	309.356	22.8845	-0.227027	0.006	-0.731191	0	1.16487	0	0	0	0	0	0	0	0	0	0
0.17	-2.59251	279.84	-21.6167	-0.224547	0.006	-0.462065	0	-0.687648	0	0.505266	309.263	22.8891	-0.226971	0.006	-0.731075	0	1.14274	0	0	0	0	0	0	0	0	0	0
0.18	-2.54032	279.994	-21.6078	-0.224528	0.006	-0.461866	0	-0.670272	0	0.468161	309.205	22.9217	-0.226958	0.006	-0.730971	0	1.1072	0	0	0	0	0	0	0	0	0	0
0.19	-2.49522	279.979	-21.5854	-0.224444	0.006	-0.461837	0	-0.687039	0	0.48927	309.345	22.9035	-0.226994	0.006	-0.731141	0	1.11744	0	0	0	0	0	0	0	0	0	0
0.2	-2.45695	279.784	-21.5322	-0.224403	0.006	-0.461957	0	-0.718143	0	0.477818	309.484	22.876	-0.227037	0.006	-0.731333	0	1.14183	0	0	0	0	0	0	0	0	0	0
0.21	-2.51883	279.568	-21.4788	-0.224397	0.006	-0.462027	0	-0.71126	0	0.470795	309.661	22.8836	-0.226846	0.006	-0.731359	0	1.1517	0	0	0	0	0	0	0	0	0	0
0.22	-2.50297	279.501	-21.4494	-0.22436	0.006	-0.462025	0	-0.705005	0	0.50122	309.638	22.8939	-0.226675	0.006	-0.731335	0	1.13904	0	0	0	0	0	0	0	0	0	0
0.23	-2.53164	279.35	-21.387	-0.224361	0.006	-0.462109	0	-0.700344	0	0.488781	309.677	22.9423	-0.226618	0.006	-0.73138	0	1.1322	0	0	0	0	0	0	0	0	0	0
0.24	-2.57514	279.345	-21.3663	-0.224277	0.006	-0.462093	0	-0.694734	0	0.451102	309.835	22.9488	-0.22665	0.006	-0.731473	0	1.12219	0	0	0	0	0	0	0	0	0	0
0.25	-2.62562	279.09	-21.3276	-0.224201	0.006	-0.462036	0	-0.693029	0	0.453946	309.987	22.955	-0.226702	0.006	-0.73157	0	1.12766	0	0	0	0	0	0	0	0	0	0
0.26	-2.64713	278.732	-21.3504	-0.224269	0.006	-0.462075	0	-0.696132	0	0.434339	310.016	22.9521	-0.226649	0.006	-0.731501	0	1.13758	0	0	0	0	0	0	0	0	0	0
0.27	-2.59037	278.703	-21.4534	-0.22424	0.006	-0.462	0	-0.70347	0	0.37122	309.963	22.9582	-0.226709	0.006	-0.731352	0	1.12246	0	0	0	0	0	0	0	0	0	0
0.28	-2.5489	278.78	-21.4881	-0.22422	0.006	-0.46192	0	-0.706674	0	0.409668	309.854	22.9464	-0.22682	0.006	-0.731354	0	1.12309	0	0	0	0	0	0	0	0	0	0
0.29	-2.51147	278.61	-21.4219	-0.224205	0.006	-0.462156	0	-0.727038	0	0.426637	309.833	22.9429	-0.226817	0.006	-0.731394	0	1.13117	0	0	0	0	0	0	0	0	0	0
0.3	-2.45756	278.541	-21.3648	-0.224228	0.006	-0.462207	0	-0.738782	0	0.410885	309.934	22.9362	-0.226761	0.006	-0.731478	0	1.12666	0	0	0	0	0	0	0	0	0	0
0.31	-2.45051	278.639	-21.3135	-0.224205	0.006	-0.462124	0	-0.728013	0	0.461064	310.032	22.949	-0.226782	0.006	-0.731434	0	1.13078	0	0	0	0	0	0	0	0	0	0
0.32	-2.51306	278.443	-21.2344	-0.224223	0.006	-0.462252	0	-0.711303	0	0.595674	310.291	22.979	-0.226796	0.006	-0.731429	0	1.13952	0	0	0	0	0	0	0	0	0	0
